<?xml version="1.0" encoding="UTF-8"?>
<svg width="512px" height="512px" viewBox="0 0 512 512" version="1.1" xmlns="http://www.w3.org/2000/svg" xmlns:xlink="http://www.w3.org/1999/xlink">
    <!-- Generator: Sketch 57.1 (83088) - https://sketch.com -->
    <title>clock</title>
    <desc>Created with Sketch.</desc>
    <g id="Page-1" stroke="none" stroke-width="1" fill="none" fill-rule="evenodd">
        <g id="clock" fill="#89C03D" fill-rule="nonzero">
            <path d="M256,0 C114.8416,0 0,114.8416 0,256 C0,397.1584 114.8416,512 256,512 C397.1584,512 512,397.1584 512,256 C512,114.8416 397.1584,0 256,0 Z M256,494.933333 C124.253867,494.933333 17.0666667,387.746133 17.0666667,256 C17.0666667,124.253867 124.253867,17.0666667 256,17.0666667 C387.746133,17.0666667 494.933333,124.253867 494.933333,256 C494.933333,387.746133 387.746133,494.933333 256,494.933333 Z" id="Shape"></path>
            <path d="M264.533333,222.045867 L264.533333,135.5008 C264.533333,130.781867 260.7104,126.967467 256,126.967467 C251.2896,126.967467 247.466667,130.781867 247.466667,135.5008 L247.466667,222.045867 C235.528533,225.152 226.184533,234.496 223.0784,246.434133 L162.133333,246.434133 C157.422933,246.434133 153.6,250.248533 153.6,254.967467 C153.6,259.6864 157.422933,263.5008 162.133333,263.5008 L223.0784,263.5008 C226.8928,278.178133 240.145067,289.1008 256,289.1008 C274.824533,289.1008 290.133333,273.792 290.133333,254.967467 C290.133333,239.104 279.210667,225.860267 264.533333,222.045867 Z M256,272.034133 C246.587733,272.034133 238.933333,264.379733 238.933333,254.967467 C238.933333,245.5552 246.587733,237.9008 256,237.9008 C265.412267,237.9008 273.066667,245.5552 273.066667,254.967467 C273.066667,264.379733 265.412267,272.034133 256,272.034133 Z" id="Shape"></path>
            <path d="M256,84.3008 C260.7104,84.3008 264.533333,80.4864 264.533333,75.7674667 L264.533333,67.2341333 C264.533333,62.5152 260.7104,58.7008 256,58.7008 C251.2896,58.7008 247.466667,62.5152 247.466667,67.2341333 L247.466667,75.7674667 C247.466667,80.4864 251.2896,84.3008 256,84.3008 Z" id="Path"></path>
            <path d="M256,425.634133 C251.2896,425.634133 247.466667,429.448533 247.466667,434.167467 L247.466667,442.7008 C247.466667,447.419733 251.2896,451.234133 256,451.234133 C260.7104,451.234133 264.533333,447.419733 264.533333,442.7008 L264.533333,434.167467 C264.533333,429.448533 260.7104,425.634133 256,425.634133 Z" id="Path"></path>
            <path d="M443.733333,246.434133 L435.2,246.434133 C430.4896,246.434133 426.666667,250.248533 426.666667,254.967467 C426.666667,259.6864 430.4896,263.5008 435.2,263.5008 L443.733333,263.5008 C448.443733,263.5008 452.266667,259.6864 452.266667,254.967467 C452.266667,250.248533 448.443733,246.434133 443.733333,246.434133 Z" id="Path"></path>
            <path d="M76.8,246.434133 L68.2666667,246.434133 C63.5562667,246.434133 59.7333333,250.248533 59.7333333,254.967467 C59.7333333,259.6864 63.5562667,263.5008 68.2666667,263.5008 L76.8,263.5008 C81.5104,263.5008 85.3333333,259.6864 85.3333333,254.967467 C85.3333333,250.248533 81.5104,246.434133 76.8,246.434133 Z" id="Path"></path>
            <path d="M382.711467,116.181333 L376.6784,122.2144 C373.341867,125.550933 373.341867,130.944 376.6784,134.280533 C378.3424,135.944533 380.526933,136.7808 382.711467,136.7808 C384.896,136.7808 387.080533,135.944533 388.744533,134.280533 L394.7776,128.247467 C398.114133,124.910933 398.114133,119.517867 394.7776,116.181333 C391.441067,112.8448 386.048,112.853333 382.711467,116.181333 Z" id="Path"></path>
            <path d="M123.255467,375.645867 L117.2224,381.678933 C113.885867,385.015467 113.885867,390.408533 117.2224,393.745067 C118.8864,395.409067 121.070933,396.245333 123.255467,396.245333 C125.44,396.245333 127.624533,395.409067 129.288533,393.745067 L135.3216,387.712 C138.658133,384.375467 138.658133,378.9824 135.3216,375.645867 C131.985067,372.309333 126.583467,372.317867 123.255467,375.645867 Z" id="Path"></path>
            <path d="M388.744533,375.645867 C385.408,372.309333 380.014933,372.309333 376.6784,375.645867 C373.341867,378.9824 373.341867,384.375467 376.6784,387.712 L382.711467,393.745067 C384.375467,395.409067 386.56,396.245333 388.744533,396.245333 C390.929067,396.245333 393.1136,395.409067 394.7776,393.745067 C398.114133,390.408533 398.114133,385.015467 394.7776,381.678933 L388.744533,375.645867 Z" id="Path"></path>
            <path d="M129.288533,116.181333 C125.952,112.8448 120.558933,112.8448 117.2224,116.181333 C113.885867,119.517867 113.885867,124.910933 117.2224,128.247467 L123.255467,134.280533 C124.919467,135.944533 127.104,136.7808 129.288533,136.7808 C131.473067,136.7808 133.6576,135.944533 135.3216,134.280533 C138.658133,130.944 138.658133,125.550933 135.3216,122.2144 L129.288533,116.181333 Z" id="Path"></path>
        </g>
    </g>
</svg>