<?xml version="1.0" encoding="UTF-8"?>
<svg width="360px" height="512px" viewBox="0 0 360 512" version="1.1" xmlns="http://www.w3.org/2000/svg" xmlns:xlink="http://www.w3.org/1999/xlink">
    <!-- Generator: Sketch 57.1 (83088) - https://sketch.com -->
    <title>placeholder</title>
    <desc>Created with Sketch.</desc>
    <g id="Page-1" stroke="none" stroke-width="1" fill="none" fill-rule="evenodd">
        <g id="placeholder" transform="translate(-0.196778, 0.000000)" fill="#89C03D" fill-rule="nonzero">
            <path d="M181.865825,112.204832 C145.782621,112.204832 116.413007,141.574447 116.413007,177.657651 C116.413007,213.740855 145.782621,243.11047 181.865825,243.11047 C217.949029,243.11047 247.318644,213.740855 247.318644,177.657651 C247.318644,141.574447 217.949029,112.204832 181.865825,112.204832 Z M181.865825,224.409665 C156.086765,224.409665 135.113812,203.436711 135.113812,177.657651 C135.113812,151.878591 156.086765,130.905638 181.865825,130.905638 C207.644886,130.905638 228.617839,151.878591 228.617839,177.657651 C228.617839,203.436711 207.644886,224.409665 181.865825,224.409665 Z" id="Shape"></path>
            <path d="M307.002265,52.5212119 C273.135106,18.6540534 228.103567,0 180.210804,0 C132.308691,0 87.2865022,18.6540534 53.4193436,52.5212119 C-9.25640557,115.187611 -17.045291,233.096189 36.5512172,304.533265 L180.210804,512 L323.655332,304.823128 C377.466899,233.096189 369.678014,115.187611 307.002265,52.5212119 Z M308.488979,293.892507 L180.210804,479.142685 L51.7269208,293.602644 C3.11417718,228.785653 10.0802272,122.303267 66.6501634,65.7426813 C96.9828698,35.409975 137.311157,18.7008054 180.210804,18.7008054 C223.110452,18.7008054 263.438738,35.409975 293.780795,65.7426813 C350.350731,122.303267 357.316781,228.785653 308.488979,293.892507 Z" id="Shape"></path>
        </g>
    </g>
</svg>