<?xml version="1.0" encoding="UTF-8"?>
<svg width="512px" height="512px" viewBox="0 0 512 512" version="1.1" xmlns="http://www.w3.org/2000/svg" xmlns:xlink="http://www.w3.org/1999/xlink">
    <!-- Generator: Sketch 57.1 (83088) - https://sketch.com -->
    <title>target</title>
    <desc>Created with Sketch.</desc>
    <g id="Page-1" stroke="none" stroke-width="1" fill="none" fill-rule="evenodd">
        <g id="target" fill="#89C03D" fill-rule="nonzero">
            <path d="M503.466667,247.466667 L486.186667,247.466667 C481.774933,127.2064 384.7936,30.2250667 264.533333,25.8133333 L264.533333,8.53333333 C264.533333,3.8144 260.718933,0 256,0 C251.281067,0 247.466667,3.8144 247.466667,8.53333333 L247.466667,25.8133333 C127.2064,30.2250667 30.2250667,127.2064 25.8133333,247.466667 L8.53333333,247.466667 C3.8144,247.466667 0,251.281067 0,256 C0,260.718933 3.8144,264.533333 8.53333333,264.533333 L25.8133333,264.533333 C30.2250667,384.7936 127.2064,481.774933 247.466667,486.186667 L247.466667,503.466667 C247.466667,508.1856 251.281067,512 256,512 C260.718933,512 264.533333,508.1856 264.533333,503.466667 L264.533333,486.186667 C384.7936,481.774933 481.774933,384.7936 486.186667,264.533333 L503.466667,264.533333 C508.1856,264.533333 512,260.718933 512,256 C512,251.281067 508.1856,247.466667 503.466667,247.466667 Z M264.533333,469.12 L264.533333,452.266667 C264.533333,447.547733 260.718933,443.733333 256,443.733333 C251.281067,443.733333 247.466667,447.547733 247.466667,452.266667 L247.466667,469.12 C136.618667,464.725333 47.2746667,375.381333 42.88,264.533333 L59.7333333,264.533333 C64.4522667,264.533333 68.2666667,260.718933 68.2666667,256 C68.2666667,251.281067 64.4522667,247.466667 59.7333333,247.466667 L42.88,247.466667 C47.2746667,136.618667 136.618667,47.2746667 247.466667,42.88 L247.466667,59.7333333 C247.466667,64.4522667 251.281067,68.2666667 256,68.2666667 C260.718933,68.2666667 264.533333,64.4522667 264.533333,59.7333333 L264.533333,42.88 C375.381333,47.2746667 464.725333,136.618667 469.12,247.466667 L452.266667,247.466667 C447.547733,247.466667 443.733333,251.281067 443.733333,256 C443.733333,260.718933 447.547733,264.533333 452.266667,264.533333 L469.12,264.533333 C464.725333,375.381333 375.381333,464.725333 264.533333,469.12 Z" id="Shape"></path>
            <path d="M358.4,247.466667 L315.050667,247.466667 C311.287467,221.3632 290.6368,200.712533 264.533333,196.949333 L264.533333,153.6 C264.533333,148.881067 260.718933,145.066667 256,145.066667 C251.281067,145.066667 247.466667,148.881067 247.466667,153.6 L247.466667,196.949333 C221.3632,200.712533 200.712533,221.371733 196.949333,247.466667 L153.6,247.466667 C148.881067,247.466667 145.066667,251.281067 145.066667,256 C145.066667,260.718933 148.881067,264.533333 153.6,264.533333 L196.949333,264.533333 C200.712533,290.6368 221.3632,311.287467 247.466667,315.050667 L247.466667,358.4 C247.466667,363.118933 251.281067,366.933333 256,366.933333 C260.718933,366.933333 264.533333,363.118933 264.533333,358.4 L264.533333,315.050667 C290.6368,311.287467 311.287467,290.628267 315.050667,264.533333 L358.4,264.533333 C363.118933,264.533333 366.933333,260.718933 366.933333,256 C366.933333,251.281067 363.118933,247.466667 358.4,247.466667 Z M256,298.666667 C232.4736,298.666667 213.333333,279.5264 213.333333,256 C213.333333,232.4736 232.4736,213.333333 256,213.333333 C279.5264,213.333333 298.666667,232.4736 298.666667,256 C298.666667,279.5264 279.5264,298.666667 256,298.666667 Z" id="Shape"></path>
        </g>
    </g>
</svg>